<svg xmlns="http://www.w3.org/2000/svg" width="1600" height="1600" viewBox="0 0 400 400" role="img" aria-labelledby="title desc">
<title id="title">Ray Charles Blues</title>
<desc id="desc">Happy keyboard smile and dark Wayfarer shades</desc>
<rect width="400" height="400" rx="10" fill="#fff8e8"/>
<path d="M0 0 H400 V400 H0Z" fill="#fff8e8"/>
<circle cx="24" cy="38" r="6" fill="#4ee6b8" stroke="#151515" stroke-width="3" opacity=".28"/><circle cx="51" cy="106" r="7" fill="#ffd84d" stroke="#151515" stroke-width="3" opacity=".28"/><circle cx="78" cy="174" r="8" fill="#55a7ff" stroke="#151515" stroke-width="3" opacity=".28"/><circle cx="105" cy="242" r="9" fill="#ff8a3d" stroke="#151515" stroke-width="3" opacity=".28"/><circle cx="132" cy="310" r="6" fill="#ff4fa3" stroke="#151515" stroke-width="3" opacity=".28"/><circle cx="159" cy="38" r="7" fill="#4ee6b8" stroke="#151515" stroke-width="3" opacity=".28"/><circle cx="186" cy="106" r="8" fill="#ffd84d" stroke="#151515" stroke-width="3" opacity=".28"/><circle cx="213" cy="174" r="9" fill="#55a7ff" stroke="#151515" stroke-width="3" opacity=".28"/><circle cx="240" cy="242" r="6" fill="#ff8a3d" stroke="#151515" stroke-width="3" opacity=".28"/><circle cx="267" cy="310" r="7" fill="#ff4fa3" stroke="#151515" stroke-width="3" opacity=".28"/><circle cx="294" cy="38" r="8" fill="#4ee6b8" stroke="#151515" stroke-width="3" opacity=".28"/><circle cx="321" cy="106" r="9" fill="#ffd84d" stroke="#151515" stroke-width="3" opacity=".28"/><circle cx="348" cy="174" r="6" fill="#55a7ff" stroke="#151515" stroke-width="3" opacity=".28"/><circle cx="375" cy="242" r="7" fill="#ff8a3d" stroke="#151515" stroke-width="3" opacity=".28"/><circle cx="402" cy="310" r="8" fill="#ff4fa3" stroke="#151515" stroke-width="3" opacity=".28"/>
<path d="M28 28 H372 V372 H28Z" fill="none" stroke="#151515" stroke-width="6" stroke-dasharray="14 10"/>

        <g transform="translate(200 178)">
          <path d="M-35 50 Q-56-30 0-45 Q56-30 35 50" fill="#151515"/>
          <rect x="-42" y="-12" width="34" height="24" rx="3" fill="#151515"/>
          <rect x="8" y="-12" width="34" height="24" rx="3" fill="#151515"/>
          <line x1="-8" y1="-8" x2="8" y2="-8" stroke="#151515" stroke-width="5"/>
          <path d="M-26 24 C-26 42 26 42 26 24" fill="#fff8e8" stroke="#151515" stroke-width="4"/>
          <line x1="-16" y1="24" x2="-16" y2="34" stroke="#151515" stroke-width="2"/><line x1="-8" y1="24" x2="-8" y2="34" stroke="#151515" stroke-width="2"/><line x1="0" y1="24" x2="0" y2="34" stroke="#151515" stroke-width="2"/><line x1="8" y1="24" x2="8" y2="34" stroke="#151515" stroke-width="2"/><line x1="16" y1="24" x2="16" y2="34" stroke="#151515" stroke-width="2"/>
        </g>
      <text x="200" y="358" text-anchor="middle" font-family="Arial Black, Arial, sans-serif" font-size="16" fill="#151515">RAY CHARLES BLUES</text>
<g transform="translate(200 54)">
<rect x="-152" y="-23" width="304" height="46" rx="4" fill="#ffd84d" stroke="#151515" stroke-width="5"/>
<text x="0" y="7" text-anchor="middle" font-family="Arial Black, Arial, sans-serif" font-size="18" fill="#151515">MUSIC IS A NECESSITY, AFTER FOOD, AIR, AND WATER</text>
</g>
</svg>
