<svg xmlns="http://www.w3.org/2000/svg" width="1600" height="1600" viewBox="0 0 400 400" role="img" aria-labelledby="title desc">
<title id="title">Bob Marley Freedom</title>
<desc id="desc">Thick dreadlocks silhouette with Rasta bandana</desc>
<rect width="400" height="400" rx="10" fill="#fff8e8"/>
<path d="M0 0 H400 V400 H0Z" fill="#fff8e8"/>
<circle cx="24" cy="38" r="6" fill="#ff4fa3" stroke="#151515" stroke-width="3" opacity=".28"/><circle cx="51" cy="106" r="7" fill="#ffd84d" stroke="#151515" stroke-width="3" opacity=".28"/><circle cx="78" cy="174" r="8" fill="#4ee6b8" stroke="#151515" stroke-width="3" opacity=".28"/><circle cx="105" cy="242" r="9" fill="#55a7ff" stroke="#151515" stroke-width="3" opacity=".28"/><circle cx="132" cy="310" r="6" fill="#ff8a3d" stroke="#151515" stroke-width="3" opacity=".28"/><circle cx="159" cy="38" r="7" fill="#ff4fa3" stroke="#151515" stroke-width="3" opacity=".28"/><circle cx="186" cy="106" r="8" fill="#ffd84d" stroke="#151515" stroke-width="3" opacity=".28"/><circle cx="213" cy="174" r="9" fill="#4ee6b8" stroke="#151515" stroke-width="3" opacity=".28"/><circle cx="240" cy="242" r="6" fill="#55a7ff" stroke="#151515" stroke-width="3" opacity=".28"/><circle cx="267" cy="310" r="7" fill="#ff8a3d" stroke="#151515" stroke-width="3" opacity=".28"/><circle cx="294" cy="38" r="8" fill="#ff4fa3" stroke="#151515" stroke-width="3" opacity=".28"/><circle cx="321" cy="106" r="9" fill="#ffd84d" stroke="#151515" stroke-width="3" opacity=".28"/><circle cx="348" cy="174" r="6" fill="#4ee6b8" stroke="#151515" stroke-width="3" opacity=".28"/><circle cx="375" cy="242" r="7" fill="#55a7ff" stroke="#151515" stroke-width="3" opacity=".28"/><circle cx="402" cy="310" r="8" fill="#ff8a3d" stroke="#151515" stroke-width="3" opacity=".28"/>
<path d="M28 28 H372 V372 H28Z" fill="none" stroke="#151515" stroke-width="6" stroke-dasharray="14 10"/>

        <g transform="translate(200 178)">
          <ellipse cx="44" cy="0" rx="26" ry="18" fill="#151515" transform="rotate(0 44 0)"/><ellipse cx="39.642630187706445" cy="16.48758208646721" rx="26" ry="18" fill="#151515" transform="rotate(25.714285714285715 39.642630187706445 16.48758208646721)"/><ellipse cx="27.43355128178428" cy="29.709596333785132" rx="26" ry="18" fill="#151515" transform="rotate(51.42857142857143 27.43355128178428 29.709596333785132)"/><ellipse cx="9.790921094077836" cy="37.047260662909295" rx="26" ry="18" fill="#151515" transform="rotate(77.14285714285714 9.790921094077836 37.047260662909295)"/><ellipse cx="-9.79092109407783" cy="37.047260662909295" rx="26" ry="18" fill="#151515" transform="rotate(102.85714285714286 -9.79092109407783 37.047260662909295)"/><ellipse cx="-27.43355128178429" cy="29.709596333785125" rx="26" ry="18" fill="#151515" transform="rotate(128.57142857142858 -27.43355128178429 29.709596333785125)"/><ellipse cx="-39.64263018770644" cy="16.487582086467214" rx="26" ry="18" fill="#151515" transform="rotate(154.28571428571428 -39.64263018770644 16.487582086467214)"/><ellipse cx="-44" cy="4.653657836759942e-15" rx="26" ry="18" fill="#151515" transform="rotate(180 -44 4.653657836759942e-15)"/><ellipse cx="-39.642630187706445" cy="-16.487582086467203" rx="26" ry="18" fill="#151515" transform="rotate(205.71428571428572 -39.642630187706445 -16.487582086467203)"/><ellipse cx="-27.433551281784283" cy="-29.70959633378513" rx="26" ry="18" fill="#151515" transform="rotate(231.42857142857142 -27.433551281784283 -29.70959633378513)"/><ellipse cx="-9.790921094077802" cy="-37.0472606629093" rx="26" ry="18" fill="#151515" transform="rotate(257.14285714285717 -9.790921094077802 -37.0472606629093)"/><ellipse cx="9.790921094077826" cy="-37.047260662909295" rx="26" ry="18" fill="#151515" transform="rotate(282.85714285714283 9.790921094077826 -37.047260662909295)"/><ellipse cx="27.43355128178427" cy="-29.709596333785136" rx="26" ry="18" fill="#151515" transform="rotate(308.57142857142856 27.43355128178427 -29.709596333785136)"/><ellipse cx="39.64263018770644" cy="-16.487582086467217" rx="26" ry="18" fill="#151515" transform="rotate(334.2857142857143 39.64263018770644 -16.487582086467217)"/>
          <path d="M-32-25 Q0-15 32-25" fill="none" stroke="#ff4f4f" stroke-width="8"/>
          <path d="M-34-17 Q0-7 34-17" fill="none" stroke="#ffd84d" stroke-width="8"/>
          <path d="M-36-9 Q0 1 36-9" fill="none" stroke="#4ee6b8" stroke-width="8"/>
        </g>
      <text x="200" y="358" text-anchor="middle" font-family="Arial Black, Arial, sans-serif" font-size="16" fill="#151515">BOB MARLEY FREEDOM</text>
<g transform="translate(200 54)">
<rect x="-152" y="-23" width="304" height="46" rx="4" fill="#ff8a3d" stroke="#151515" stroke-width="5"/>
<text x="0" y="7" text-anchor="middle" font-family="Arial Black, Arial, sans-serif" font-size="18" fill="#151515">EMANCIPATE YOURSELVES FROM MENTAL SLAVERY</text>
</g>
</svg>
