<svg xmlns="http://www.w3.org/2000/svg" width="1600" height="1600" viewBox="0 0 400 400" role="img" aria-labelledby="title desc">
<title id="title">Elton John Star</title>
<desc id="desc">Extravagant star-shaped glasses and hair silhouette</desc>
<rect width="400" height="400" rx="10" fill="#fffaf0"/>
<path d="M0 0 H400 V400 H0Z" fill="#fffaf0"/>
<circle cx="24" cy="38" r="6" fill="#d7b6ff" stroke="#151515" stroke-width="3" opacity=".28"/><circle cx="51" cy="106" r="7" fill="#ffe45c" stroke="#151515" stroke-width="3" opacity=".28"/><circle cx="78" cy="174" r="8" fill="#38d9a9" stroke="#151515" stroke-width="3" opacity=".28"/><circle cx="105" cy="242" r="9" fill="#ff6b6b" stroke="#151515" stroke-width="3" opacity=".28"/><circle cx="132" cy="310" r="6" fill="#4dabf7" stroke="#151515" stroke-width="3" opacity=".28"/><circle cx="159" cy="38" r="7" fill="#d7b6ff" stroke="#151515" stroke-width="3" opacity=".28"/><circle cx="186" cy="106" r="8" fill="#ffe45c" stroke="#151515" stroke-width="3" opacity=".28"/><circle cx="213" cy="174" r="9" fill="#38d9a9" stroke="#151515" stroke-width="3" opacity=".28"/><circle cx="240" cy="242" r="6" fill="#ff6b6b" stroke="#151515" stroke-width="3" opacity=".28"/><circle cx="267" cy="310" r="7" fill="#4dabf7" stroke="#151515" stroke-width="3" opacity=".28"/><circle cx="294" cy="38" r="8" fill="#d7b6ff" stroke="#151515" stroke-width="3" opacity=".28"/><circle cx="321" cy="106" r="9" fill="#ffe45c" stroke="#151515" stroke-width="3" opacity=".28"/><circle cx="348" cy="174" r="6" fill="#38d9a9" stroke="#151515" stroke-width="3" opacity=".28"/><circle cx="375" cy="242" r="7" fill="#ff6b6b" stroke="#151515" stroke-width="3" opacity=".28"/><circle cx="402" cy="310" r="8" fill="#4dabf7" stroke="#151515" stroke-width="3" opacity=".28"/>
<path d="M28 28 H372 V372 H28Z" fill="none" stroke="#151515" stroke-width="6" stroke-dasharray="14 10"/>

        <g transform="translate(200 178)">
          <path d="M-45 50 Q-56-35 0-42 Q56-35 45 50 Z" fill="#151515"/>
          <g transform="translate(-25 10)">
            <path d="M0-18 L5-5 L18-5 L8 4 L12 18 L0 10 L-12 18 L-8 4 L-18-5 L-5-5 Z" fill="#38d9a9" stroke="#151515" stroke-width="5"/>
          </g>
          <g transform="translate(25 10)">
            <path d="M0-18 L5-5 L18-5 L8 4 L12 18 L0 10 L-12 18 L-8 4 L-18-5 L-5-5 Z" fill="#38d9a9" stroke="#151515" stroke-width="5"/>
          </g>
          <line x1="-8" y1="10" x2="8" y2="10" stroke="#151515" stroke-width="6"/>
        </g>
      <text x="200" y="358" text-anchor="middle" font-family="Arial Black, Arial, sans-serif" font-size="16" fill="#151515">ELTON JOHN STAR</text>
<g transform="translate(200 54)">
<rect x="-152" y="-23" width="304" height="46" rx="4" fill="#4dabf7" stroke="#151515" stroke-width="5"/>
<text x="0" y="7" text-anchor="middle" font-family="Arial Black, Arial, sans-serif" font-size="18" fill="#151515">SAD SONGS SAY SO MUCH</text>
</g>
</svg>
