<svg xmlns="http://www.w3.org/2000/svg" width="1600" height="1600" viewBox="0 0 400 400" role="img" aria-labelledby="title desc">
<title id="title">Beethoven Storm</title>
<desc id="desc">Wind-blown wild hair and red neck scarf profile</desc>
<rect width="400" height="400" rx="10" fill="#fff8e8"/>
<path d="M0 0 H400 V400 H0Z" fill="#fff8e8"/>
<circle cx="24" cy="38" r="6" fill="#ff8a3d" stroke="#151515" stroke-width="3" opacity=".28"/><circle cx="51" cy="106" r="7" fill="#ffd84d" stroke="#151515" stroke-width="3" opacity=".28"/><circle cx="78" cy="174" r="8" fill="#ff4fa3" stroke="#151515" stroke-width="3" opacity=".28"/><circle cx="105" cy="242" r="9" fill="#55a7ff" stroke="#151515" stroke-width="3" opacity=".28"/><circle cx="132" cy="310" r="6" fill="#4ee6b8" stroke="#151515" stroke-width="3" opacity=".28"/><circle cx="159" cy="38" r="7" fill="#ff8a3d" stroke="#151515" stroke-width="3" opacity=".28"/><circle cx="186" cy="106" r="8" fill="#ffd84d" stroke="#151515" stroke-width="3" opacity=".28"/><circle cx="213" cy="174" r="9" fill="#ff4fa3" stroke="#151515" stroke-width="3" opacity=".28"/><circle cx="240" cy="242" r="6" fill="#55a7ff" stroke="#151515" stroke-width="3" opacity=".28"/><circle cx="267" cy="310" r="7" fill="#4ee6b8" stroke="#151515" stroke-width="3" opacity=".28"/><circle cx="294" cy="38" r="8" fill="#ff8a3d" stroke="#151515" stroke-width="3" opacity=".28"/><circle cx="321" cy="106" r="9" fill="#ffd84d" stroke="#151515" stroke-width="3" opacity=".28"/><circle cx="348" cy="174" r="6" fill="#ff4fa3" stroke="#151515" stroke-width="3" opacity=".28"/><circle cx="375" cy="242" r="7" fill="#55a7ff" stroke="#151515" stroke-width="3" opacity=".28"/><circle cx="402" cy="310" r="8" fill="#4ee6b8" stroke="#151515" stroke-width="3" opacity=".28"/>
<path d="M28 28 H372 V372 H28Z" fill="none" stroke="#151515" stroke-width="6" stroke-dasharray="14 10"/>

        <g transform="translate(200 178)">
          <path d="M-45 55 C-92 10-78-85 0-85 C78-85 92 10 45 55 L35 30 L48 5 L20-40 L-20-40 L-48 5 L-35 30 Z" fill="#151515"/>
          <line x1="0" y1="-40" x2="0" y2="-92" stroke="#151515" stroke-width="8" stroke-linecap="round" transform="rotate(-60)"/><line x1="0" y1="-40" x2="0" y2="-92" stroke="#151515" stroke-width="8" stroke-linecap="round" transform="rotate(-42)"/><line x1="0" y1="-40" x2="0" y2="-92" stroke="#151515" stroke-width="8" stroke-linecap="round" transform="rotate(-24)"/><line x1="0" y1="-40" x2="0" y2="-92" stroke="#151515" stroke-width="8" stroke-linecap="round" transform="rotate(-6)"/><line x1="0" y1="-40" x2="0" y2="-92" stroke="#151515" stroke-width="8" stroke-linecap="round" transform="rotate(12)"/><line x1="0" y1="-40" x2="0" y2="-92" stroke="#151515" stroke-width="8" stroke-linecap="round" transform="rotate(30)"/><line x1="0" y1="-40" x2="0" y2="-92" stroke="#151515" stroke-width="8" stroke-linecap="round" transform="rotate(48)"/><line x1="0" y1="-40" x2="0" y2="-92" stroke="#151515" stroke-width="8" stroke-linecap="round" transform="rotate(66)"/>
          <path d="M-30 45 Q0 92 30 45 Q15 105 0 88 Q-15 105-30 45" fill="#55a7ff" stroke="#151515" stroke-width="4"/>
        </g>
      <text x="200" y="358" text-anchor="middle" font-family="Arial Black, Arial, sans-serif" font-size="16" fill="#151515">BEETHOVEN STORM</text>
<g transform="translate(200 54)">
<rect x="-152" y="-23" width="304" height="46" rx="4" fill="#ffd84d" stroke="#151515" stroke-width="5"/>
<text x="0" y="7" text-anchor="middle" font-family="Arial Black, Arial, sans-serif" font-size="18" fill="#151515">MUSIC SHOULD STRIKE FIRE FROM THE HEART OF MAN</text>
</g>
</svg>
