<svg xmlns="http://www.w3.org/2000/svg" width="1600" height="1600" viewBox="0 0 400 400" role="img" aria-labelledby="title desc">
<title id="title">Tritone Tease</title>
<desc id="desc">Tritone, music theory joke</desc>
<rect width="400" height="400" rx="10" fill="#fff8e8"/>
<path d="M0 0 H400 V400 H0Z" fill="#fff8e8"/>
<circle cx="24" cy="38" r="6" fill="#4ee6b8" stroke="#151515" stroke-width="3" opacity=".28"/><circle cx="51" cy="106" r="7" fill="#ffd84d" stroke="#151515" stroke-width="3" opacity=".28"/><circle cx="78" cy="174" r="8" fill="#55a7ff" stroke="#151515" stroke-width="3" opacity=".28"/><circle cx="105" cy="242" r="9" fill="#ff8a3d" stroke="#151515" stroke-width="3" opacity=".28"/><circle cx="132" cy="310" r="6" fill="#ff4fa3" stroke="#151515" stroke-width="3" opacity=".28"/><circle cx="159" cy="38" r="7" fill="#4ee6b8" stroke="#151515" stroke-width="3" opacity=".28"/><circle cx="186" cy="106" r="8" fill="#ffd84d" stroke="#151515" stroke-width="3" opacity=".28"/><circle cx="213" cy="174" r="9" fill="#55a7ff" stroke="#151515" stroke-width="3" opacity=".28"/><circle cx="240" cy="242" r="6" fill="#ff8a3d" stroke="#151515" stroke-width="3" opacity=".28"/><circle cx="267" cy="310" r="7" fill="#ff4fa3" stroke="#151515" stroke-width="3" opacity=".28"/><circle cx="294" cy="38" r="8" fill="#4ee6b8" stroke="#151515" stroke-width="3" opacity=".28"/><circle cx="321" cy="106" r="9" fill="#ffd84d" stroke="#151515" stroke-width="3" opacity=".28"/><circle cx="348" cy="174" r="6" fill="#55a7ff" stroke="#151515" stroke-width="3" opacity=".28"/><circle cx="375" cy="242" r="7" fill="#ff8a3d" stroke="#151515" stroke-width="3" opacity=".28"/><circle cx="402" cy="310" r="8" fill="#ff4fa3" stroke="#151515" stroke-width="3" opacity=".28"/>
<path d="M28 28 H372 V372 H28Z" fill="none" stroke="#151515" stroke-width="6" stroke-dasharray="14 10"/>
<g transform="translate(200 176)"><circle r="124" fill="#fff8e8" stroke="#151515" stroke-width="6"/><circle r="82" fill="#55a7ff" stroke="#151515" stroke-width="5"/><circle r="34" fill="#ff4fa3" stroke="#151515" stroke-width="4"/><g font-family="Arial Black, Arial" font-size="18" fill="#151515"><text x="6.368163355566236e-15" y="-98" text-anchor="middle">C</text><text x="52.000000000000014" y="-84.06664199358161" text-anchor="middle">G</text><text x="90.06664199358163" y="-45.99999999999999" text-anchor="middle">D</text><text x="104" y="6" text-anchor="middle">A</text><text x="90.06664199358163" y="57.99999999999999" text-anchor="middle">E</text><text x="52.000000000000014" y="96.06664199358161" text-anchor="middle">B</text><text x="6.368163355566236e-15" y="110" text-anchor="middle">F#</text><text x="-51.99999999999998" y="96.06664199358163" text-anchor="middle">Db</text><text x="-90.06664199358163" y="57.99999999999999" text-anchor="middle">Ab</text><text x="-104" y="6.000000000000012" text-anchor="middle">Eb</text><text x="-90.06664199358161" y="-46.000000000000014" text-anchor="middle">Bb</text><text x="-52.00000000000004" y="-84.0666419935816" text-anchor="middle">F</text></g></g><text x="200" y="358" text-anchor="middle" font-family="Arial Black, Arial, sans-serif" font-size="16" fill="#151515">TRITONE TEASE</text>
<g transform="translate(200 54)">
<rect x="-152" y="-23" width="304" height="46" rx="4" fill="#ffd84d" stroke="#151515" stroke-width="5"/>
<text x="0" y="7" text-anchor="middle" font-family="Arial Black, Arial, sans-serif" font-size="18" fill="#151515">I WAS BANNED IN THEORY CLASS</text>
</g>
</svg>
