<svg xmlns="http://www.w3.org/2000/svg" width="1600" height="1600" viewBox="0 0 400 400" role="img" aria-labelledby="title desc">
<title id="title">Drum Fill Drama</title>
<desc id="desc">Drums, band humor</desc>
<rect width="400" height="400" rx="10" fill="#fff8e8"/>
<path d="M0 0 H400 V400 H0Z" fill="#fff8e8"/>
<circle cx="24" cy="38" r="6" fill="#ff4fa3" stroke="#151515" stroke-width="3" opacity=".28"/><circle cx="51" cy="106" r="7" fill="#ffd84d" stroke="#151515" stroke-width="3" opacity=".28"/><circle cx="78" cy="174" r="8" fill="#4ee6b8" stroke="#151515" stroke-width="3" opacity=".28"/><circle cx="105" cy="242" r="9" fill="#55a7ff" stroke="#151515" stroke-width="3" opacity=".28"/><circle cx="132" cy="310" r="6" fill="#ff8a3d" stroke="#151515" stroke-width="3" opacity=".28"/><circle cx="159" cy="38" r="7" fill="#ff4fa3" stroke="#151515" stroke-width="3" opacity=".28"/><circle cx="186" cy="106" r="8" fill="#ffd84d" stroke="#151515" stroke-width="3" opacity=".28"/><circle cx="213" cy="174" r="9" fill="#4ee6b8" stroke="#151515" stroke-width="3" opacity=".28"/><circle cx="240" cy="242" r="6" fill="#55a7ff" stroke="#151515" stroke-width="3" opacity=".28"/><circle cx="267" cy="310" r="7" fill="#ff8a3d" stroke="#151515" stroke-width="3" opacity=".28"/><circle cx="294" cy="38" r="8" fill="#ff4fa3" stroke="#151515" stroke-width="3" opacity=".28"/><circle cx="321" cy="106" r="9" fill="#ffd84d" stroke="#151515" stroke-width="3" opacity=".28"/><circle cx="348" cy="174" r="6" fill="#4ee6b8" stroke="#151515" stroke-width="3" opacity=".28"/><circle cx="375" cy="242" r="7" fill="#55a7ff" stroke="#151515" stroke-width="3" opacity=".28"/><circle cx="402" cy="310" r="8" fill="#ff8a3d" stroke="#151515" stroke-width="3" opacity=".28"/>
<path d="M28 28 H372 V372 H28Z" fill="none" stroke="#151515" stroke-width="6" stroke-dasharray="14 10"/>
<g><circle cx="40" cy="238" r="18" fill="#ff4fa3" stroke="#151515" stroke-width="4"/><circle cx="59" cy="248" r="18" fill="#ffd84d" stroke="#151515" stroke-width="4"/><circle cx="78" cy="258" r="18" fill="#4ee6b8" stroke="#151515" stroke-width="4"/><circle cx="97" cy="238" r="18" fill="#55a7ff" stroke="#151515" stroke-width="4"/><circle cx="116" cy="248" r="18" fill="#ff8a3d" stroke="#151515" stroke-width="4"/><circle cx="135" cy="258" r="18" fill="#ff4fa3" stroke="#151515" stroke-width="4"/><circle cx="154" cy="238" r="18" fill="#ffd84d" stroke="#151515" stroke-width="4"/><circle cx="173" cy="248" r="18" fill="#4ee6b8" stroke="#151515" stroke-width="4"/><circle cx="192" cy="258" r="18" fill="#55a7ff" stroke="#151515" stroke-width="4"/><circle cx="211" cy="238" r="18" fill="#ff8a3d" stroke="#151515" stroke-width="4"/><circle cx="230" cy="248" r="18" fill="#ff4fa3" stroke="#151515" stroke-width="4"/><circle cx="249" cy="258" r="18" fill="#ffd84d" stroke="#151515" stroke-width="4"/><circle cx="268" cy="238" r="18" fill="#4ee6b8" stroke="#151515" stroke-width="4"/><circle cx="287" cy="248" r="18" fill="#55a7ff" stroke="#151515" stroke-width="4"/><circle cx="306" cy="258" r="18" fill="#ff8a3d" stroke="#151515" stroke-width="4"/><circle cx="325" cy="238" r="18" fill="#ff4fa3" stroke="#151515" stroke-width="4"/><circle cx="344" cy="248" r="18" fill="#ffd84d" stroke="#151515" stroke-width="4"/><circle cx="363" cy="258" r="18" fill="#4ee6b8" stroke="#151515" stroke-width="4"/><path d="M64 210 C108 126 160 166 200 94 C244 166 296 126 338 210" fill="none" stroke="#151515" stroke-width="12" stroke-linecap="round"/><path d="M64 210 C108 126 160 166 200 94 C244 166 296 126 338 210" fill="none" stroke="#ffd84d" stroke-width="6" stroke-linecap="round"/></g><text x="200" y="358" text-anchor="middle" font-family="Arial Black, Arial, sans-serif" font-size="16" fill="#151515">DRUM FILL DRAMA</text>
<g transform="translate(200 54)">
<rect x="-152" y="-23" width="304" height="46" rx="4" fill="#ff8a3d" stroke="#151515" stroke-width="5"/>
<text x="0" y="7" text-anchor="middle" font-family="Arial Black, Arial, sans-serif" font-size="18" fill="#151515">ONE MORE FILL, THEN I PROMISE</text>
</g>
</svg>
