<svg xmlns="http://www.w3.org/2000/svg" width="1600" height="1600" viewBox="0 0 400 400" role="img" aria-labelledby="title desc">
<title id="title">Hendrix Excuse Me</title>
<desc id="desc">Jimi Hendrix style afro and guitar solo</desc>
<rect width="400" height="400" rx="10" fill="#fff8e8"/>
<path d="M0 0 H400 V400 H0Z" fill="#fff8e8"/>
<circle cx="24" cy="38" r="6" fill="#55a7ff" stroke="#151515" stroke-width="3" opacity=".28"/><circle cx="51" cy="106" r="7" fill="#ff4fa3" stroke="#151515" stroke-width="3" opacity=".28"/><circle cx="78" cy="174" r="8" fill="#4ee6b8" stroke="#151515" stroke-width="3" opacity=".28"/><circle cx="105" cy="242" r="9" fill="#ffd84d" stroke="#151515" stroke-width="3" opacity=".28"/><circle cx="132" cy="310" r="6" fill="#ff8a3d" stroke="#151515" stroke-width="3" opacity=".28"/><circle cx="159" cy="38" r="7" fill="#55a7ff" stroke="#151515" stroke-width="3" opacity=".28"/><circle cx="186" cy="106" r="8" fill="#ff4fa3" stroke="#151515" stroke-width="3" opacity=".28"/><circle cx="213" cy="174" r="9" fill="#4ee6b8" stroke="#151515" stroke-width="3" opacity=".28"/><circle cx="240" cy="242" r="6" fill="#ffd84d" stroke="#151515" stroke-width="3" opacity=".28"/><circle cx="267" cy="310" r="7" fill="#ff8a3d" stroke="#151515" stroke-width="3" opacity=".28"/><circle cx="294" cy="38" r="8" fill="#55a7ff" stroke="#151515" stroke-width="3" opacity=".28"/><circle cx="321" cy="106" r="9" fill="#ff4fa3" stroke="#151515" stroke-width="3" opacity=".28"/><circle cx="348" cy="174" r="6" fill="#4ee6b8" stroke="#151515" stroke-width="3" opacity=".28"/><circle cx="375" cy="242" r="7" fill="#ffd84d" stroke="#151515" stroke-width="3" opacity=".28"/><circle cx="402" cy="310" r="8" fill="#ff8a3d" stroke="#151515" stroke-width="3" opacity=".28"/>
<path d="M28 28 H372 V372 H28Z" fill="none" stroke="#151515" stroke-width="6" stroke-dasharray="14 10"/>
<g transform="translate(200 178)"><circle cx="-10" cy="-30" r="46" fill="#151515"/><circle cx="28" cy="-24" r="42" fill="#151515"/><circle cx="-28" cy="10" r="38" fill="#151515"/><circle cx="24" cy="18" r="36" fill="#151515"/><rect x="-44" y="-12" width="88" height="14" fill="#ffd84d" stroke="#151515" stroke-width="3" transform="rotate(-5)"/><g transform="translate(10 40) rotate(-35)"><ellipse cx="-18" cy="18" rx="36" ry="46" fill="#55a7ff" stroke="#151515" stroke-width="5"/><ellipse cx="14" cy="8" rx="30" ry="40" fill="#55a7ff" stroke="#151515" stroke-width="5"/><rect x="-8" y="-96" width="16" height="120" fill="#ff4fa3" stroke="#151515" stroke-width="4"/><rect x="-24" y="-116" width="48" height="22" rx="3" fill="#ff8a3d" stroke="#151515" stroke-width="4"/></g></g><text x="200" y="358" text-anchor="middle" font-family="Arial Black, Arial, sans-serif" font-size="16" fill="#151515">HENDRIX EXCUSE ME</text>
<g transform="translate(200 54)">
<rect x="-152" y="-23" width="304" height="46" rx="4" fill="#ff8a3d" stroke="#151515" stroke-width="5"/>
<text x="0" y="7" text-anchor="middle" font-family="Arial Black, Arial, sans-serif" font-size="18" fill="#151515">EXCUSE ME WHILE I KISS THE SKY</text>
</g>
</svg>
