<svg xmlns="http://www.w3.org/2000/svg" width="1600" height="1600" viewBox="0 0 400 400" role="img" aria-labelledby="title desc">
<title id="title">Joplin Compromise</title>
<desc id="desc">Janis Joplin style feather boa and vintage mic</desc>
<rect width="400" height="400" rx="10" fill="#fff8e8"/>
<path d="M0 0 H400 V400 H0Z" fill="#fff8e8"/>
<circle cx="24" cy="38" r="6" fill="#4ee6b8" stroke="#151515" stroke-width="3" opacity=".28"/><circle cx="51" cy="106" r="7" fill="#ffd84d" stroke="#151515" stroke-width="3" opacity=".28"/><circle cx="78" cy="174" r="8" fill="#55a7ff" stroke="#151515" stroke-width="3" opacity=".28"/><circle cx="105" cy="242" r="9" fill="#ff8a3d" stroke="#151515" stroke-width="3" opacity=".28"/><circle cx="132" cy="310" r="6" fill="#ff4fa3" stroke="#151515" stroke-width="3" opacity=".28"/><circle cx="159" cy="38" r="7" fill="#4ee6b8" stroke="#151515" stroke-width="3" opacity=".28"/><circle cx="186" cy="106" r="8" fill="#ffd84d" stroke="#151515" stroke-width="3" opacity=".28"/><circle cx="213" cy="174" r="9" fill="#55a7ff" stroke="#151515" stroke-width="3" opacity=".28"/><circle cx="240" cy="242" r="6" fill="#ff8a3d" stroke="#151515" stroke-width="3" opacity=".28"/><circle cx="267" cy="310" r="7" fill="#ff4fa3" stroke="#151515" stroke-width="3" opacity=".28"/><circle cx="294" cy="38" r="8" fill="#4ee6b8" stroke="#151515" stroke-width="3" opacity=".28"/><circle cx="321" cy="106" r="9" fill="#ffd84d" stroke="#151515" stroke-width="3" opacity=".28"/><circle cx="348" cy="174" r="6" fill="#55a7ff" stroke="#151515" stroke-width="3" opacity=".28"/><circle cx="375" cy="242" r="7" fill="#ff8a3d" stroke="#151515" stroke-width="3" opacity=".28"/><circle cx="402" cy="310" r="8" fill="#ff4fa3" stroke="#151515" stroke-width="3" opacity=".28"/>
<path d="M28 28 H372 V372 H28Z" fill="none" stroke="#151515" stroke-width="6" stroke-dasharray="14 10"/>
<g transform="translate(200 178)"><ellipse cx="0" cy="0" rx="96" ry="96" fill="#4ee6b8" stroke="#151515" stroke-width="5" stroke-dasharray="14 10"/><circle cx="-42" cy="-15" r="38" fill="none" stroke="#151515" stroke-width="12"/><circle cx="-42" cy="-15" r="32" fill="#ffd84d" stroke="#151515" stroke-width="4" opacity="0.8"/><circle cx="42" cy="-15" r="38" fill="none" stroke="#151515" stroke-width="12"/><circle cx="42" cy="-15" r="32" fill="#ffd84d" stroke="#151515" stroke-width="4" opacity="0.8"/><line x1="-4" y1="-15" x2="4" y2="-15" stroke="#151515" stroke-width="12" stroke-linecap="round"/><g transform="translate(0 52)"><rect x="-14" y="-30" width="28" height="50" rx="14" fill="#55a7ff" stroke="#151515" stroke-width="5"/><line x1="0" y1="20" x2="0" y2="90" stroke="#151515" stroke-width="6"/><line x1="-14" y1="-10" x2="14" y2="-10" stroke="#151515" stroke-width="3"/><line x1="0" y1="-30" x2="0" y2="20" stroke="#151515" stroke-width="3"/></g></g><text x="200" y="358" text-anchor="middle" font-family="Arial Black, Arial, sans-serif" font-size="16" fill="#151515">JOPLIN COMPROMISE</text>
<g transform="translate(200 54)">
<rect x="-152" y="-23" width="304" height="46" rx="4" fill="#ffd84d" stroke="#151515" stroke-width="5"/>
<text x="0" y="7" text-anchor="middle" font-family="Arial Black, Arial, sans-serif" font-size="18" fill="#151515">DON&apos;T COMPROMISE YOURSELF, YOU&apos;RE ALL YOU&apos;VE GOT</text>
</g>
</svg>
