<svg xmlns="http://www.w3.org/2000/svg" width="1600" height="1600" viewBox="0 0 400 400" role="img" aria-labelledby="title desc">
<title id="title">Beatles Love</title>
<desc id="desc">The iconic four-man mop-top silhouette walking</desc>
<rect width="400" height="400" rx="10" fill="#fffaf0"/>
<path d="M0 0 H400 V400 H0Z" fill="#fffaf0"/>
<circle cx="24" cy="38" r="6" fill="#d7b6ff" stroke="#151515" stroke-width="3" opacity=".28"/><circle cx="51" cy="106" r="7" fill="#ffe45c" stroke="#151515" stroke-width="3" opacity=".28"/><circle cx="78" cy="174" r="8" fill="#38d9a9" stroke="#151515" stroke-width="3" opacity=".28"/><circle cx="105" cy="242" r="9" fill="#ff6b6b" stroke="#151515" stroke-width="3" opacity=".28"/><circle cx="132" cy="310" r="6" fill="#4dabf7" stroke="#151515" stroke-width="3" opacity=".28"/><circle cx="159" cy="38" r="7" fill="#d7b6ff" stroke="#151515" stroke-width="3" opacity=".28"/><circle cx="186" cy="106" r="8" fill="#ffe45c" stroke="#151515" stroke-width="3" opacity=".28"/><circle cx="213" cy="174" r="9" fill="#38d9a9" stroke="#151515" stroke-width="3" opacity=".28"/><circle cx="240" cy="242" r="6" fill="#ff6b6b" stroke="#151515" stroke-width="3" opacity=".28"/><circle cx="267" cy="310" r="7" fill="#4dabf7" stroke="#151515" stroke-width="3" opacity=".28"/><circle cx="294" cy="38" r="8" fill="#d7b6ff" stroke="#151515" stroke-width="3" opacity=".28"/><circle cx="321" cy="106" r="9" fill="#ffe45c" stroke="#151515" stroke-width="3" opacity=".28"/><circle cx="348" cy="174" r="6" fill="#38d9a9" stroke="#151515" stroke-width="3" opacity=".28"/><circle cx="375" cy="242" r="7" fill="#ff6b6b" stroke="#151515" stroke-width="3" opacity=".28"/><circle cx="402" cy="310" r="8" fill="#4dabf7" stroke="#151515" stroke-width="3" opacity=".28"/>
<path d="M28 28 H372 V372 H28Z" fill="none" stroke="#151515" stroke-width="6" stroke-dasharray="14 10"/>
<g transform="translate(200 178)"><g transform="translate(-76 20)"><circle cx="0" cy="-45" r="18" fill="#151515"/><path d="M-14-27 C-14-27-24 30-24 70 L 12 70 C 12 30 4-27 4-27 Z" fill="#151515"/><path d="M-22-51 C-22-65 22-65 22-51 C 22-35-22-35-22-51" fill="#38d9a9"/></g><g transform="translate(-24 10)"><circle cx="0" cy="-45" r="18" fill="#151515"/><path d="M-14-27 C-14-27-24 30-24 80 L 12 80 C 12 30 4-27 4-27 Z" fill="#151515"/><path d="M-22-51 C-22-65 22-65 22-51 C 22-35-22-35-22-51" fill="#d7b6ff"/></g><g transform="translate(28 15)"><circle cx="0" cy="-45" r="18" fill="#151515"/><path d="M-14-27 C-14-27-20 30-20 75 L 12 75 C 12 30 4-27 4-27 Z" fill="#151515"/><path d="M-22-51 C-22-65 22-65 22-51 C 22-35-22-35-22-51" fill="#ff6b6b"/></g><g transform="translate(80 24)"><circle cx="0" cy="-45" r="18" fill="#151515"/><path d="M-14-27 C-14-27-18 30-18 66 L 12 66 C 12 30 4-27 4-27 Z" fill="#151515"/><path d="M-22-51 C-22-65 22-65 22-51 C 22-35-22-35-22-51" fill="#ffe45c"/></g></g><text x="200" y="358" text-anchor="middle" font-family="Arial Black, Arial, sans-serif" font-size="16" fill="#151515">BEATLES LOVE</text>
<g transform="translate(200 54)">
<rect x="-152" y="-23" width="304" height="46" rx="4" fill="#4dabf7" stroke="#151515" stroke-width="5"/>
<text x="0" y="7" text-anchor="middle" font-family="Arial Black, Arial, sans-serif" font-size="18" fill="#151515">ALL YOU NEED IS LOVE AND MELODY</text>
</g>
</svg>
