<svg xmlns="http://www.w3.org/2000/svg" width="1600" height="1600" viewBox="0 0 400 400" role="img" aria-labelledby="title desc">
<title id="title">Beethoven Passion</title>
<desc id="desc">Classic piano player hands flying on keys</desc>
<rect width="400" height="400" rx="10" fill="#fff8e8"/>
<path d="M0 0 H400 V400 H0Z" fill="#fff8e8"/>
<circle cx="24" cy="38" r="6" fill="#ff8a3d" stroke="#151515" stroke-width="3" opacity=".28"/><circle cx="51" cy="106" r="7" fill="#ffd84d" stroke="#151515" stroke-width="3" opacity=".28"/><circle cx="78" cy="174" r="8" fill="#ff4fa3" stroke="#151515" stroke-width="3" opacity=".28"/><circle cx="105" cy="242" r="9" fill="#55a7ff" stroke="#151515" stroke-width="3" opacity=".28"/><circle cx="132" cy="310" r="6" fill="#4ee6b8" stroke="#151515" stroke-width="3" opacity=".28"/><circle cx="159" cy="38" r="7" fill="#ff8a3d" stroke="#151515" stroke-width="3" opacity=".28"/><circle cx="186" cy="106" r="8" fill="#ffd84d" stroke="#151515" stroke-width="3" opacity=".28"/><circle cx="213" cy="174" r="9" fill="#ff4fa3" stroke="#151515" stroke-width="3" opacity=".28"/><circle cx="240" cy="242" r="6" fill="#55a7ff" stroke="#151515" stroke-width="3" opacity=".28"/><circle cx="267" cy="310" r="7" fill="#4ee6b8" stroke="#151515" stroke-width="3" opacity=".28"/><circle cx="294" cy="38" r="8" fill="#ff8a3d" stroke="#151515" stroke-width="3" opacity=".28"/><circle cx="321" cy="106" r="9" fill="#ffd84d" stroke="#151515" stroke-width="3" opacity=".28"/><circle cx="348" cy="174" r="6" fill="#ff4fa3" stroke="#151515" stroke-width="3" opacity=".28"/><circle cx="375" cy="242" r="7" fill="#55a7ff" stroke="#151515" stroke-width="3" opacity=".28"/><circle cx="402" cy="310" r="8" fill="#4ee6b8" stroke="#151515" stroke-width="3" opacity=".28"/>
<path d="M28 28 H372 V372 H28Z" fill="none" stroke="#151515" stroke-width="6" stroke-dasharray="14 10"/>
<g transform="translate(200 180)"><path d="M-110 30 C-110-60-20-100 40-100 C 90-100 110-70 110-30 C 110 30 80 40 80 40 L-110 40 Z" fill="#ff8a3d" stroke="#151515" stroke-width="6"/><line x1="40" y1="-100" x2="60" y2="10" stroke="#151515" stroke-width="6"/><rect x="-120" y="20" width="240" height="35" fill="#fff8e8" stroke="#151515" stroke-width="5"/><line x1="-120" y1="20" x2="-120" y2="55" stroke="#151515" stroke-width="2"/><line x1="-104" y1="20" x2="-104" y2="55" stroke="#151515" stroke-width="2"/><line x1="-88" y1="20" x2="-88" y2="55" stroke="#151515" stroke-width="2"/><line x1="-72" y1="20" x2="-72" y2="55" stroke="#151515" stroke-width="2"/><line x1="-56" y1="20" x2="-56" y2="55" stroke="#151515" stroke-width="2"/><line x1="-40" y1="20" x2="-40" y2="55" stroke="#151515" stroke-width="2"/><line x1="-24" y1="20" x2="-24" y2="55" stroke="#151515" stroke-width="2"/><line x1="-8" y1="20" x2="-8" y2="55" stroke="#151515" stroke-width="2"/><line x1="8" y1="20" x2="8" y2="55" stroke="#151515" stroke-width="2"/><line x1="24" y1="20" x2="24" y2="55" stroke="#151515" stroke-width="2"/><line x1="40" y1="20" x2="40" y2="55" stroke="#151515" stroke-width="2"/><line x1="56" y1="20" x2="56" y2="55" stroke="#151515" stroke-width="2"/><line x1="72" y1="20" x2="72" y2="55" stroke="#151515" stroke-width="2"/><line x1="88" y1="20" x2="88" y2="55" stroke="#151515" stroke-width="2"/><line x1="104" y1="20" x2="104" y2="55" stroke="#151515" stroke-width="2"/><rect x="-112" y="20" width="8" height="22" fill="#151515"/><rect x="-96" y="20" width="8" height="22" fill="#151515"/><rect x="-64" y="20" width="8" height="22" fill="#151515"/><rect x="-48" y="20" width="8" height="22" fill="#151515"/><rect x="-32" y="20" width="8" height="22" fill="#151515"/><rect x="0" y="20" width="8" height="22" fill="#151515"/><rect x="16" y="20" width="8" height="22" fill="#151515"/><rect x="48" y="20" width="8" height="22" fill="#151515"/><rect x="64" y="20" width="8" height="22" fill="#151515"/><rect x="80" y="20" width="8" height="22" fill="#151515"/></g><text x="200" y="358" text-anchor="middle" font-family="Arial Black, Arial, sans-serif" font-size="16" fill="#151515">BEETHOVEN PASSION</text>
<g transform="translate(200 54)">
<rect x="-152" y="-23" width="304" height="46" rx="4" fill="#ffd84d" stroke="#151515" stroke-width="5"/>
<text x="0" y="7" text-anchor="middle" font-family="Arial Black, Arial, sans-serif" font-size="18" fill="#151515">TO PLAY WITHOUT PASSION IS INEXCUSABLE</text>
</g>
</svg>
