<svg xmlns="http://www.w3.org/2000/svg" width="1600" height="1600" viewBox="0 0 400 400" role="img" aria-labelledby="title desc">
<title id="title">Compressor Dynamics Squeeze</title>
<desc id="desc">Console VU meters and threshold knobs</desc>
<rect width="400" height="400" rx="10" fill="#fff8e8"/>
<path d="M0 0 H400 V400 H0Z" fill="#fff8e8"/>
<circle cx="24" cy="38" r="6" fill="#55a7ff" stroke="#151515" stroke-width="3" opacity=".28"/><circle cx="51" cy="106" r="7" fill="#ff4fa3" stroke="#151515" stroke-width="3" opacity=".28"/><circle cx="78" cy="174" r="8" fill="#4ee6b8" stroke="#151515" stroke-width="3" opacity=".28"/><circle cx="105" cy="242" r="9" fill="#ffd84d" stroke="#151515" stroke-width="3" opacity=".28"/><circle cx="132" cy="310" r="6" fill="#ff8a3d" stroke="#151515" stroke-width="3" opacity=".28"/><circle cx="159" cy="38" r="7" fill="#55a7ff" stroke="#151515" stroke-width="3" opacity=".28"/><circle cx="186" cy="106" r="8" fill="#ff4fa3" stroke="#151515" stroke-width="3" opacity=".28"/><circle cx="213" cy="174" r="9" fill="#4ee6b8" stroke="#151515" stroke-width="3" opacity=".28"/><circle cx="240" cy="242" r="6" fill="#ffd84d" stroke="#151515" stroke-width="3" opacity=".28"/><circle cx="267" cy="310" r="7" fill="#ff8a3d" stroke="#151515" stroke-width="3" opacity=".28"/><circle cx="294" cy="38" r="8" fill="#55a7ff" stroke="#151515" stroke-width="3" opacity=".28"/><circle cx="321" cy="106" r="9" fill="#ff4fa3" stroke="#151515" stroke-width="3" opacity=".28"/><circle cx="348" cy="174" r="6" fill="#4ee6b8" stroke="#151515" stroke-width="3" opacity=".28"/><circle cx="375" cy="242" r="7" fill="#ffd84d" stroke="#151515" stroke-width="3" opacity=".28"/><circle cx="402" cy="310" r="8" fill="#ff8a3d" stroke="#151515" stroke-width="3" opacity=".28"/>
<path d="M28 28 H372 V372 H28Z" fill="none" stroke="#151515" stroke-width="6" stroke-dasharray="14 10"/>
<g transform="translate(200 180)"><rect x="-130" y="-80" width="260" height="160" rx="6" fill="#55a7ff" stroke="#151515" stroke-width="5"/><line x1="-65" y1="-80" x2="-65" y2="80" stroke="#151515" stroke-width="3" opacity="0.4"/><line x1="0" y1="-80" x2="0" y2="80" stroke="#151515" stroke-width="3" opacity="0.4"/><line x1="65" y1="-80" x2="65" y2="80" stroke="#151515" stroke-width="3" opacity="0.4"/><g transform="translate(-97 -60)"><rect x="-10" y="-12" width="20" height="24" fill="#151515" rx="2"/><circle cx="-4" cy="-5" r="2.5" fill="#38d9a9"/><circle cx="4" cy="-5" r="2.5" fill="#38d9a9"/><circle cx="-4" cy="5" r="2.5" fill="#ffd84d"/><circle cx="4" cy="5" r="2.5" fill="#ffd84d"/></g><g transform="translate(-32 -60)"><rect x="-10" y="-12" width="20" height="24" fill="#151515" rx="2"/><circle cx="-4" cy="-5" r="2.5" fill="#38d9a9"/><circle cx="4" cy="-5" r="2.5" fill="#38d9a9"/><circle cx="-4" cy="5" r="2.5" fill="#ffd84d"/><circle cx="4" cy="5" r="2.5" fill="#ffd84d"/></g><g transform="translate(33 -60)"><rect x="-10" y="-12" width="20" height="24" fill="#151515" rx="2"/><circle cx="-4" cy="-5" r="2.5" fill="#ff6b6b"/><circle cx="4" cy="-5" r="2.5" fill="#ff6b6b"/><circle cx="-4" cy="5" r="2.5" fill="#ffd84d"/><circle cx="4" cy="5" r="2.5" fill="#ffd84d"/></g><g transform="translate(98 -60)"><rect x="-10" y="-12" width="20" height="24" fill="#151515" rx="2"/><circle cx="-4" cy="-5" r="2.5" fill="#38d9a9"/><circle cx="4" cy="-5" r="2.5" fill="#38d9a9"/><circle cx="-4" cy="5" r="2.5" fill="#ffd84d"/><circle cx="4" cy="5" r="2.5" fill="#ffd84d"/></g><line x1="-97" y1="-30" x2="-97" y2="60" stroke="#151515" stroke-width="4" stroke-linecap="round"/><line x1="-32" y1="-30" x2="-32" y2="60" stroke="#151515" stroke-width="4" stroke-linecap="round"/><line x1="33" y1="-30" x2="33" y2="60" stroke="#151515" stroke-width="4" stroke-linecap="round"/><line x1="98" y1="-30" x2="98" y2="60" stroke="#151515" stroke-width="4" stroke-linecap="round"/><rect x="-109" y="10" width="24" height="14" rx="2" fill="#4ee6b8" stroke="#151515" stroke-width="3"/><rect x="-44" y="-20" width="24" height="14" rx="2" fill="#ffd84d" stroke="#151515" stroke-width="3"/><rect x="21" y="30" width="24" height="14" rx="2" fill="#ff4fa3" stroke="#151515" stroke-width="3"/><rect x="86" y="-5" width="24" height="14" rx="2" fill="#ff8a3d" stroke="#151515" stroke-width="3"/></g><text x="200" y="358" text-anchor="middle" font-family="Arial Black, Arial, sans-serif" font-size="16" fill="#151515">COMPRESSOR DYNAMICS SQUEEZE</text>
<g transform="translate(200 54)">
<rect x="-152" y="-23" width="304" height="46" rx="4" fill="#ff8a3d" stroke="#151515" stroke-width="5"/>
<text x="0" y="7" text-anchor="middle" font-family="Arial Black, Arial, sans-serif" font-size="18" fill="#151515">SQUEEZING THE LIFE OUT OF DYNAMICS</text>
</g>
</svg>
