<svg xmlns="http://www.w3.org/2000/svg" width="1600" height="1600" viewBox="0 0 400 400" role="img" aria-labelledby="title desc">
<title id="title">Stage Crew Shadows</title>
<desc id="desc">Stage crew cables and backstage rig</desc>
<rect width="400" height="400" rx="10" fill="#fff8e8"/>
<path d="M0 0 H400 V400 H0Z" fill="#fff8e8"/>
<circle cx="24" cy="38" r="6" fill="#f72585" stroke="#151515" stroke-width="3" opacity=".28"/><circle cx="51" cy="106" r="7" fill="#f9c74f" stroke="#151515" stroke-width="3" opacity=".28"/><circle cx="78" cy="174" r="8" fill="#90be6d" stroke="#151515" stroke-width="3" opacity=".28"/><circle cx="105" cy="242" r="9" fill="#577590" stroke="#151515" stroke-width="3" opacity=".28"/><circle cx="132" cy="310" r="6" fill="#f8961e" stroke="#151515" stroke-width="3" opacity=".28"/><circle cx="159" cy="38" r="7" fill="#f72585" stroke="#151515" stroke-width="3" opacity=".28"/><circle cx="186" cy="106" r="8" fill="#f9c74f" stroke="#151515" stroke-width="3" opacity=".28"/><circle cx="213" cy="174" r="9" fill="#90be6d" stroke="#151515" stroke-width="3" opacity=".28"/><circle cx="240" cy="242" r="6" fill="#577590" stroke="#151515" stroke-width="3" opacity=".28"/><circle cx="267" cy="310" r="7" fill="#f8961e" stroke="#151515" stroke-width="3" opacity=".28"/><circle cx="294" cy="38" r="8" fill="#f72585" stroke="#151515" stroke-width="3" opacity=".28"/><circle cx="321" cy="106" r="9" fill="#f9c74f" stroke="#151515" stroke-width="3" opacity=".28"/><circle cx="348" cy="174" r="6" fill="#90be6d" stroke="#151515" stroke-width="3" opacity=".28"/><circle cx="375" cy="242" r="7" fill="#577590" stroke="#151515" stroke-width="3" opacity=".28"/><circle cx="402" cy="310" r="8" fill="#f8961e" stroke="#151515" stroke-width="3" opacity=".28"/>
<path d="M28 28 H372 V372 H28Z" fill="none" stroke="#151515" stroke-width="6" stroke-dasharray="14 10"/>
<g transform="translate(200 178)"><path d="M-130 50 Q-90-80-30-30 T 30-30 T 90 20 T 130-40" fill="none" stroke="#f9c74f" stroke-width="18" stroke-linecap="round"/><path d="M-130 50 Q-90-80-30-30 T 30-30 T 90 20 T 130-40" fill="none" stroke="#151515" stroke-width="10" stroke-linecap="round"/><path d="M-110 70 Q-60-40 0 0 T 80-10 T 120 60" fill="none" stroke="#577590" stroke-width="8" stroke-linecap="round"/><g transform="translate(-130 50) rotate(-45)"><rect x="-6" y="-20" width="12" height="30" fill="#f72585" stroke="#151515" stroke-width="3" rx="2"/><rect x="-3" y="-35" width="6" height="15" fill="#fff8e8" stroke="#151515" stroke-width="2"/></g><g transform="translate(130 -40) rotate(135)"><rect x="-6" y="-20" width="12" height="30" fill="#f8961e" stroke="#151515" stroke-width="3" rx="2"/><rect x="-3" y="-35" width="6" height="15" fill="#fff8e8" stroke="#151515" stroke-width="2"/></g></g><text x="200" y="358" text-anchor="middle" font-family="Arial Black, Arial, sans-serif" font-size="16" fill="#151515">STAGE CREW SHADOWS</text>
<g transform="translate(200 54)">
<rect x="-152" y="-23" width="304" height="46" rx="4" fill="#f9c74f" stroke="#151515" stroke-width="5"/>
<text x="0" y="7" text-anchor="middle" font-family="Arial Black, Arial, sans-serif" font-size="18" fill="#151515">WE WEAR BLACK AND RUN THE WORLD</text>
</g>
</svg>
