<svg xmlns="http://www.w3.org/2000/svg" width="1600" height="1600" viewBox="0 0 400 400" role="img" aria-labelledby="title desc">
<title id="title">Banned Notes Theory</title>
<desc id="desc">Music score with notes drifting off the page</desc>
<rect width="400" height="400" rx="10" fill="#fff8e8"/>
<path d="M0 0 H400 V400 H0Z" fill="#fff8e8"/>
<circle cx="24" cy="38" r="6" fill="#ff8a3d" stroke="#151515" stroke-width="3" opacity=".28"/><circle cx="51" cy="106" r="7" fill="#ffd84d" stroke="#151515" stroke-width="3" opacity=".28"/><circle cx="78" cy="174" r="8" fill="#ff4fa3" stroke="#151515" stroke-width="3" opacity=".28"/><circle cx="105" cy="242" r="9" fill="#55a7ff" stroke="#151515" stroke-width="3" opacity=".28"/><circle cx="132" cy="310" r="6" fill="#4ee6b8" stroke="#151515" stroke-width="3" opacity=".28"/><circle cx="159" cy="38" r="7" fill="#ff8a3d" stroke="#151515" stroke-width="3" opacity=".28"/><circle cx="186" cy="106" r="8" fill="#ffd84d" stroke="#151515" stroke-width="3" opacity=".28"/><circle cx="213" cy="174" r="9" fill="#ff4fa3" stroke="#151515" stroke-width="3" opacity=".28"/><circle cx="240" cy="242" r="6" fill="#55a7ff" stroke="#151515" stroke-width="3" opacity=".28"/><circle cx="267" cy="310" r="7" fill="#4ee6b8" stroke="#151515" stroke-width="3" opacity=".28"/><circle cx="294" cy="38" r="8" fill="#ff8a3d" stroke="#151515" stroke-width="3" opacity=".28"/><circle cx="321" cy="106" r="9" fill="#ffd84d" stroke="#151515" stroke-width="3" opacity=".28"/><circle cx="348" cy="174" r="6" fill="#ff4fa3" stroke="#151515" stroke-width="3" opacity=".28"/><circle cx="375" cy="242" r="7" fill="#55a7ff" stroke="#151515" stroke-width="3" opacity=".28"/><circle cx="402" cy="310" r="8" fill="#4ee6b8" stroke="#151515" stroke-width="3" opacity=".28"/>
<path d="M28 28 H372 V372 H28Z" fill="none" stroke="#151515" stroke-width="6" stroke-dasharray="14 10"/>
<g transform="translate(200 178)"><path d="M-140 -40 C-70 -70 70 -10 140 -40" fill="none" stroke="#151515" stroke-width="3" opacity="0.6"/><path d="M-140 -20 C-70 -50 70 10 140 -20" fill="none" stroke="#151515" stroke-width="3" opacity="0.6"/><path d="M-140 0 C-70 -30 70 30 140 0" fill="none" stroke="#151515" stroke-width="3" opacity="0.6"/><path d="M-140 20 C-70 -10 70 50 140 20" fill="none" stroke="#151515" stroke-width="3" opacity="0.6"/><path d="M-140 40 C-70 10 70 70 140 40" fill="none" stroke="#151515" stroke-width="3" opacity="0.6"/><g transform="translate(-80 -10) scale(0.7)"><path d="M 20 80 C 20 110, -30 110, -30 80 C -30 60, -10 50, 0 50 C -20 50, -40 30, -40 0 C -40 -40, 0 -80, 20 -110 L 20 120 C 20 140, 5 150, -10 150" fill="none" stroke="#151515" stroke-width="8" stroke-linecap="round"/><path d="M 20 80 C 20 110, -30 110, -30 80 C -30 60, -10 50, 0 50 C -20 50, -40 30, -40 0 C -40 -40, 0 -80, 20 -110 L 20 120 C 20 140, 5 150, -10 150" fill="none" stroke="#ff8a3d" stroke-width="4" stroke-linecap="round"/></g><g transform="translate(0 -20)"><ellipse cx="-10" cy="10" rx="12" ry="8" fill="#ff4fa3" stroke="#151515" stroke-width="3" transform="rotate(-20)"/><line x1="0" y1="10" x2="0" y2="-40" stroke="#151515" stroke-width="4"/><path d="M0-40 Q15-35 20-20" fill="none" stroke="#151515" stroke-width="4" stroke-linecap="round"/></g><g transform="translate(60 20)"><ellipse cx="-10" cy="10" rx="12" ry="8" fill="#55a7ff" stroke="#151515" stroke-width="3" transform="rotate(-20)"/><line x1="0" y1="10" x2="0" y2="-40" stroke="#151515" stroke-width="4"/><path d="M0-40 Q15-35 20-20" fill="none" stroke="#151515" stroke-width="4" stroke-linecap="round"/></g></g><text x="200" y="358" text-anchor="middle" font-family="Arial Black, Arial, sans-serif" font-size="16" fill="#151515">BANNED NOTES THEORY</text>
<g transform="translate(200 54)">
<rect x="-152" y="-23" width="304" height="46" rx="4" fill="#ffd84d" stroke="#151515" stroke-width="5"/>
<text x="0" y="7" text-anchor="middle" font-family="Arial Black, Arial, sans-serif" font-size="18" fill="#151515">I ONLY PLAY NOTES THAT ARE BANNED</text>
</g>
</svg>
