<svg xmlns="http://www.w3.org/2000/svg" width="1600" height="1600" viewBox="0 0 400 400" role="img" aria-labelledby="title desc">
<title id="title">Drums Time Keepers</title>
<desc id="desc">Crossed drumsticks on a vintage snare drum</desc>
<rect width="400" height="400" rx="10" fill="#fffaf0"/>
<path d="M0 0 H400 V400 H0Z" fill="#fffaf0"/>
<circle cx="24" cy="38" r="6" fill="#d7b6ff" stroke="#151515" stroke-width="3" opacity=".28"/><circle cx="51" cy="106" r="7" fill="#ffe45c" stroke="#151515" stroke-width="3" opacity=".28"/><circle cx="78" cy="174" r="8" fill="#38d9a9" stroke="#151515" stroke-width="3" opacity=".28"/><circle cx="105" cy="242" r="9" fill="#ff6b6b" stroke="#151515" stroke-width="3" opacity=".28"/><circle cx="132" cy="310" r="6" fill="#4dabf7" stroke="#151515" stroke-width="3" opacity=".28"/><circle cx="159" cy="38" r="7" fill="#d7b6ff" stroke="#151515" stroke-width="3" opacity=".28"/><circle cx="186" cy="106" r="8" fill="#ffe45c" stroke="#151515" stroke-width="3" opacity=".28"/><circle cx="213" cy="174" r="9" fill="#38d9a9" stroke="#151515" stroke-width="3" opacity=".28"/><circle cx="240" cy="242" r="6" fill="#ff6b6b" stroke="#151515" stroke-width="3" opacity=".28"/><circle cx="267" cy="310" r="7" fill="#4dabf7" stroke="#151515" stroke-width="3" opacity=".28"/><circle cx="294" cy="38" r="8" fill="#d7b6ff" stroke="#151515" stroke-width="3" opacity=".28"/><circle cx="321" cy="106" r="9" fill="#ffe45c" stroke="#151515" stroke-width="3" opacity=".28"/><circle cx="348" cy="174" r="6" fill="#38d9a9" stroke="#151515" stroke-width="3" opacity=".28"/><circle cx="375" cy="242" r="7" fill="#ff6b6b" stroke="#151515" stroke-width="3" opacity=".28"/><circle cx="402" cy="310" r="8" fill="#4dabf7" stroke="#151515" stroke-width="3" opacity=".28"/>
<path d="M28 28 H372 V372 H28Z" fill="none" stroke="#151515" stroke-width="6" stroke-dasharray="14 10"/>
<g transform="translate(200 182)"><rect x="-86" y="-25" width="172" height="74" rx="4" fill="#d7b6ff" stroke="#151515" stroke-width="6"/><rect x="-86" y="-35" width="172" height="10" fill="#ffe45c" stroke="#151515" stroke-width="4"/><rect x="-86" y="49" width="172" height="10" fill="#ffe45c" stroke="#151515" stroke-width="4"/><line x1="-70" y1="-25" x2="-70" y2="49" stroke="#151515" stroke-width="3"/><line x1="-35" y1="-25" x2="-35" y2="49" stroke="#151515" stroke-width="3"/><line x1="0" y1="-25" x2="0" y2="49" stroke="#151515" stroke-width="3"/><line x1="35" y1="-25" x2="35" y2="49" stroke="#151515" stroke-width="3"/><line x1="70" y1="-25" x2="70" y2="49" stroke="#151515" stroke-width="3"/><g transform="rotate(22)"><line x1="-120" y1="-45" x2="120" y2="-45" stroke="#38d9a9" stroke-width="6" stroke-linecap="round"/><circle cx="120" cy="-45" r="6.5" fill="#151515"/></g><g transform="rotate(-22)"><line x1="-120" y1="45" x2="120" y2="45" stroke="#38d9a9" stroke-width="6" stroke-linecap="round"/><circle cx="120" cy="45" r="6.5" fill="#151515"/></g></g><text x="200" y="358" text-anchor="middle" font-family="Arial Black, Arial, sans-serif" font-size="16" fill="#151515">DRUMS TIME KEEPERS</text>
<g transform="translate(200 54)">
<rect x="-152" y="-23" width="304" height="46" rx="4" fill="#4dabf7" stroke="#151515" stroke-width="5"/>
<text x="0" y="7" text-anchor="middle" font-family="Arial Black, Arial, sans-serif" font-size="18" fill="#151515">DRUMMERS: KEEPING TIME, LOSING MINDS</text>
</g>
</svg>
