<svg xmlns="http://www.w3.org/2000/svg" width="1600" height="1600" viewBox="0 0 400 400" role="img" aria-labelledby="title desc">
<title id="title">Frequency Reality Timbre</title>
<desc id="desc">Audio headphones surrounded by frequency scales</desc>
<rect width="400" height="400" rx="10" fill="#fff8e8"/>
<path d="M0 0 H400 V400 H0Z" fill="#fff8e8"/>
<circle cx="24" cy="38" r="6" fill="#ff4fa3" stroke="#151515" stroke-width="3" opacity=".28"/><circle cx="51" cy="106" r="7" fill="#ffd84d" stroke="#151515" stroke-width="3" opacity=".28"/><circle cx="78" cy="174" r="8" fill="#4ee6b8" stroke="#151515" stroke-width="3" opacity=".28"/><circle cx="105" cy="242" r="9" fill="#55a7ff" stroke="#151515" stroke-width="3" opacity=".28"/><circle cx="132" cy="310" r="6" fill="#ff8a3d" stroke="#151515" stroke-width="3" opacity=".28"/><circle cx="159" cy="38" r="7" fill="#ff4fa3" stroke="#151515" stroke-width="3" opacity=".28"/><circle cx="186" cy="106" r="8" fill="#ffd84d" stroke="#151515" stroke-width="3" opacity=".28"/><circle cx="213" cy="174" r="9" fill="#4ee6b8" stroke="#151515" stroke-width="3" opacity=".28"/><circle cx="240" cy="242" r="6" fill="#55a7ff" stroke="#151515" stroke-width="3" opacity=".28"/><circle cx="267" cy="310" r="7" fill="#ff8a3d" stroke="#151515" stroke-width="3" opacity=".28"/><circle cx="294" cy="38" r="8" fill="#ff4fa3" stroke="#151515" stroke-width="3" opacity=".28"/><circle cx="321" cy="106" r="9" fill="#ffd84d" stroke="#151515" stroke-width="3" opacity=".28"/><circle cx="348" cy="174" r="6" fill="#4ee6b8" stroke="#151515" stroke-width="3" opacity=".28"/><circle cx="375" cy="242" r="7" fill="#55a7ff" stroke="#151515" stroke-width="3" opacity=".28"/><circle cx="402" cy="310" r="8" fill="#ff8a3d" stroke="#151515" stroke-width="3" opacity=".28"/>
<path d="M28 28 H372 V372 H28Z" fill="none" stroke="#151515" stroke-width="6" stroke-dasharray="14 10"/>
<g transform="translate(200 178)"><path d="M-70 40 C-70-70 70-70 70 40" fill="none" stroke="#151515" stroke-width="18" stroke-linecap="round"/><path d="M-70 40 C-70-70 70-70 70 40" fill="none" stroke="#ffd84d" stroke-width="10" stroke-linecap="round"/><g transform="translate(-75 30) rotate(-10)"><rect x="-22" y="-36" width="44" height="72" rx="22" fill="#ff4fa3" stroke="#151515" stroke-width="5"/><rect x="-10" y="-26" width="20" height="52" rx="10" fill="#4ee6b8" stroke="#151515" stroke-width="3"/></g><g transform="translate(75 30) rotate(10)"><rect x="-22" y="-36" width="44" height="72" rx="22" fill="#ff4fa3" stroke="#151515" stroke-width="5"/><rect x="-10" y="-26" width="20" height="52" rx="10" fill="#4ee6b8" stroke="#151515" stroke-width="3"/></g><path d="M-115 -10 A 60 60 0 0 0 -115 70" fill="none" stroke="#55a7ff" stroke-width="4" stroke-linecap="round" stroke-dasharray="4 6"/><path d="M 115 -10 A 60 60 0 0 1 115 70" fill="none" stroke="#55a7ff" stroke-width="4" stroke-linecap="round" stroke-dasharray="4 6"/></g><text x="200" y="358" text-anchor="middle" font-family="Arial Black, Arial, sans-serif" font-size="16" fill="#151515">FREQUENCY REALITY TIMBRE</text>
<g transform="translate(200 54)">
<rect x="-152" y="-23" width="304" height="46" rx="4" fill="#ff8a3d" stroke="#151515" stroke-width="5"/>
<text x="0" y="7" text-anchor="middle" font-family="Arial Black, Arial, sans-serif" font-size="18" fill="#151515">IN THE SPECTRUM OF HARMONY, MATH BECOMES ART</text>
</g>
</svg>
