<svg xmlns="http://www.w3.org/2000/svg" width="1600" height="1600" viewBox="0 0 400 400" role="img" aria-labelledby="title desc">
<title id="title">Stagelights Soul Remain</title>
<desc id="desc">Retro stage mic under neon spotlight rays</desc>
<rect width="400" height="400" rx="10" fill="#fff8e8"/>
<path d="M0 0 H400 V400 H0Z" fill="#fff8e8"/>
<circle cx="24" cy="38" r="6" fill="#55a7ff" stroke="#151515" stroke-width="3" opacity=".28"/><circle cx="51" cy="106" r="7" fill="#ff4fa3" stroke="#151515" stroke-width="3" opacity=".28"/><circle cx="78" cy="174" r="8" fill="#4ee6b8" stroke="#151515" stroke-width="3" opacity=".28"/><circle cx="105" cy="242" r="9" fill="#ffd84d" stroke="#151515" stroke-width="3" opacity=".28"/><circle cx="132" cy="310" r="6" fill="#ff8a3d" stroke="#151515" stroke-width="3" opacity=".28"/><circle cx="159" cy="38" r="7" fill="#55a7ff" stroke="#151515" stroke-width="3" opacity=".28"/><circle cx="186" cy="106" r="8" fill="#ff4fa3" stroke="#151515" stroke-width="3" opacity=".28"/><circle cx="213" cy="174" r="9" fill="#4ee6b8" stroke="#151515" stroke-width="3" opacity=".28"/><circle cx="240" cy="242" r="6" fill="#ffd84d" stroke="#151515" stroke-width="3" opacity=".28"/><circle cx="267" cy="310" r="7" fill="#ff8a3d" stroke="#151515" stroke-width="3" opacity=".28"/><circle cx="294" cy="38" r="8" fill="#55a7ff" stroke="#151515" stroke-width="3" opacity=".28"/><circle cx="321" cy="106" r="9" fill="#ff4fa3" stroke="#151515" stroke-width="3" opacity=".28"/><circle cx="348" cy="174" r="6" fill="#4ee6b8" stroke="#151515" stroke-width="3" opacity=".28"/><circle cx="375" cy="242" r="7" fill="#ffd84d" stroke="#151515" stroke-width="3" opacity=".28"/><circle cx="402" cy="310" r="8" fill="#ff8a3d" stroke="#151515" stroke-width="3" opacity=".28"/>
<path d="M28 28 H372 V372 H28Z" fill="none" stroke="#151515" stroke-width="6" stroke-dasharray="14 10"/>
<g transform="translate(200 178)"><circle r="126" fill="none" stroke="#4ee6b8" stroke-width="2" stroke-dasharray="8 8" opacity="0.5"/><circle r="96" fill="none" stroke="#ff4fa3" stroke-width="3" stroke-dasharray="6 6"/><line x1="0" y1="50" x2="0" y2="140" stroke="#151515" stroke-width="8" stroke-linecap="round"/><line x1="-30" y1="140" x2="30" y2="140" stroke="#151515" stroke-width="8" stroke-linecap="round"/><path d="M-30-10 C-30 40 30 40 30-10" fill="none" stroke="#151515" stroke-width="8" stroke-linecap="round"/><rect x="-18" y="-50" width="36" height="70" rx="18" fill="#55a7ff" stroke="#151515" stroke-width="5"/><rect x="-18" y="-50" width="36" height="30" rx="15" fill="#ffd84d" stroke="#151515" stroke-width="4"/><line x1="-18" y1="-35" x2="18" y2="-35" stroke="#151515" stroke-width="2"/><line x1="0" y1="-50" x2="0" y2="-20" stroke="#151515" stroke-width="2"/><rect x="-20" y="-30" width="40" height="6" fill="#151515"/></g><text x="200" y="358" text-anchor="middle" font-family="Arial Black, Arial, sans-serif" font-size="16" fill="#151515">STAGELIGHTS SOUL REMAIN</text>
<g transform="translate(200 54)">
<rect x="-152" y="-23" width="304" height="46" rx="4" fill="#ff8a3d" stroke="#151515" stroke-width="5"/>
<text x="0" y="7" text-anchor="middle" font-family="Arial Black, Arial, sans-serif" font-size="18" fill="#151515">STAGELIGHTS FADE, SOULS REMAIN UNBOWED</text>
</g>
</svg>
