<svg xmlns="http://www.w3.org/2000/svg" width="1600" height="1600" viewBox="0 0 400 400" role="img" aria-labelledby="title desc">
<title id="title">Unleash Tone Heal</title>
<desc id="desc">Stratocaster guitar neck emerging from waves</desc>
<rect width="400" height="400" rx="10" fill="#fff8e8"/>
<path d="M0 0 H400 V400 H0Z" fill="#fff8e8"/>
<circle cx="24" cy="38" r="6" fill="#ff4fa3" stroke="#151515" stroke-width="3" opacity=".28"/><circle cx="51" cy="106" r="7" fill="#ffd84d" stroke="#151515" stroke-width="3" opacity=".28"/><circle cx="78" cy="174" r="8" fill="#4ee6b8" stroke="#151515" stroke-width="3" opacity=".28"/><circle cx="105" cy="242" r="9" fill="#55a7ff" stroke="#151515" stroke-width="3" opacity=".28"/><circle cx="132" cy="310" r="6" fill="#ff8a3d" stroke="#151515" stroke-width="3" opacity=".28"/><circle cx="159" cy="38" r="7" fill="#ff4fa3" stroke="#151515" stroke-width="3" opacity=".28"/><circle cx="186" cy="106" r="8" fill="#ffd84d" stroke="#151515" stroke-width="3" opacity=".28"/><circle cx="213" cy="174" r="9" fill="#4ee6b8" stroke="#151515" stroke-width="3" opacity=".28"/><circle cx="240" cy="242" r="6" fill="#55a7ff" stroke="#151515" stroke-width="3" opacity=".28"/><circle cx="267" cy="310" r="7" fill="#ff8a3d" stroke="#151515" stroke-width="3" opacity=".28"/><circle cx="294" cy="38" r="8" fill="#ff4fa3" stroke="#151515" stroke-width="3" opacity=".28"/><circle cx="321" cy="106" r="9" fill="#ffd84d" stroke="#151515" stroke-width="3" opacity=".28"/><circle cx="348" cy="174" r="6" fill="#4ee6b8" stroke="#151515" stroke-width="3" opacity=".28"/><circle cx="375" cy="242" r="7" fill="#55a7ff" stroke="#151515" stroke-width="3" opacity=".28"/><circle cx="402" cy="310" r="8" fill="#ff8a3d" stroke="#151515" stroke-width="3" opacity=".28"/>
<path d="M28 28 H372 V372 H28Z" fill="none" stroke="#151515" stroke-width="6" stroke-dasharray="14 10"/>
<g transform="translate(200 178) rotate(-18)"><ellipse cx="-34" cy="42" rx="58" ry="74" fill="#ff4fa3" stroke="#151515" stroke-width="6"/><ellipse cx="28" cy="20" rx="50" ry="64" fill="#4ee6b8" stroke="#151515" stroke-width="6"/><circle cx="0" cy="32" r="24" fill="#151515"/><rect x="-13" y="-142" width="26" height="186" fill="#ffd84d" stroke="#151515" stroke-width="5"/><rect x="-38" y="-174" width="76" height="36" rx="4" fill="#55a7ff" stroke="#151515" stroke-width="5"/><line x1="-8" y1="-162" x2="-8" y2="100" stroke="#fff8e8" stroke-width="2"/><line x1="-3" y1="-162" x2="-3" y2="100" stroke="#fff8e8" stroke-width="2"/><line x1="2" y1="-162" x2="2" y2="100" stroke="#fff8e8" stroke-width="2"/><line x1="7" y1="-162" x2="7" y2="100" stroke="#fff8e8" stroke-width="2"/></g><text x="200" y="358" text-anchor="middle" font-family="Arial Black, Arial, sans-serif" font-size="16" fill="#151515">UNLEASH TONE HEAL</text>
<g transform="translate(200 54)">
<rect x="-152" y="-23" width="304" height="46" rx="4" fill="#ff8a3d" stroke="#151515" stroke-width="5"/>
<text x="0" y="7" text-anchor="middle" font-family="Arial Black, Arial, sans-serif" font-size="18" fill="#151515">UNLEASH THE TONE, HEAL THE WORLD</text>
</g>
</svg>
